<svg width="11" height="16" viewBox="0 0 11 16" fill="none" xmlns="http://www.w3.org/2000/svg">
<path d="M8.8465 0H1.83338C1.00468 0 0.330566 0.672848 0.330566 1.5V14.5C0.330566 15.3272 1.00468 16 1.83338 16H8.8465C9.67521 16 10.3493 15.3272 10.3493 14.5V1.5C10.3493 0.672848 9.67521 0 8.8465 0ZM1.83338 1H8.8465C9.1229 1 9.34744 1.22412 9.34744 1.5V12H1.33244V1.5C1.33244 1.22412 1.55698 1 1.83338 1ZM8.8465 15H1.83338C1.55698 15 1.33244 14.7759 1.33244 14.5V13H9.34744V14.5C9.34744 14.7759 9.1229 15 8.8465 15Z" fill="#757575"/>
<path d="M2.68852 13.7389C2.88416 13.9213 2.88416 14.2169 2.68852 14.3992C2.49289 14.5816 2.17573 14.5816 1.9801 14.3992C1.78447 14.2169 1.78447 13.9213 1.9801 13.7389C2.17573 13.5566 2.49289 13.5566 2.68852 13.7389Z" fill="#757575"/>
</svg>
