<svg xmlns="http://www.w3.org/2000/svg" width="108" height="60" fill="none">
  <path fill="#AFB1B8" fill-rule="evenodd" d="M50.952 5.935h-.137c-.21-.013-.42-.018-.63-.023h-.455c-.397 0-.802.01-1.204.03a.627.627 0 0 0-.091 0 28.276 28.276 0 0 0-10.516 2.683l-.433.208v22.142l1.012-.344c.888-.305 1.834-.58 2.813-.834a34.329 34.329 0 0 1 8.095-1.075v2.909a24.44 24.44 0 0 0-1.065.03h-.083a32.362 32.362 0 0 0-6.229.956 31.636 31.636 0 0 0-7.42 2.892V7.112a29.728 29.728 0 0 1 7.785-3.166A29.793 29.793 0 0 1 49.73 3h.427c.511.013 1.01.036 1.478.071a21.09 21.09 0 0 1 3.655.583v2.863a22.623 22.623 0 0 0-3.541-.534l-.073-.006a8.745 8.745 0 0 0-.724-.042ZM55.99 8.86c.635.049 1.293.072 1.958.072a31.466 31.466 0 0 0 7.713-.99 31.773 31.773 0 0 0 7.417-2.893v27.89a29.815 29.815 0 0 1-7.786 3.166 29.943 29.943 0 0 1-7.337.944 22.405 22.405 0 0 1-5.565-.656V8.322c.43.1.873.191 1.323.267.739.125 1.518.216 2.277.272Zm14.194.217-1.012.34c-.93.313-1.87.593-2.813.842a34.264 34.264 0 0 1-8.406 1.078c-.66 0-1.267-.018-1.854-.056l-.807-.053V34.006l.693.06c.642.057 1.305.085 1.973.085a26.882 26.882 0 0 0 6.62-.857 27.761 27.761 0 0 0 5.174-1.86l.432-.208V9.078Z" clip-rule="evenodd"/>
  <path fill="#AFB1B8" d="M36.575 45.212a1.492 1.492 0 0 0-1.126-.455 1.672 1.672 0 0 0-.65.122 1.462 1.462 0 0 0-.832.842c-.08.2-.119.413-.116.628v3.794c-.01.267.042.533.149.778.09.195.219.368.38.509.151.127.33.22.52.27.185.051.376.078.567.078.212.002.42-.043.612-.132a1.599 1.599 0 0 0 .96-1.465v-.424h-.992v.338a.883.883 0 0 1-.059.338.609.609 0 0 1-.144.214.697.697 0 0 1-.415.145.503.503 0 0 1-.465-.204.899.899 0 0 1-.132-.508v-3.538c-.006-.196.036-.39.122-.567a.507.507 0 0 1 .485-.229.527.527 0 0 1 .443.214.807.807 0 0 1 .165.509v.328h.981v-.387a1.788 1.788 0 0 0-.121-.664 1.564 1.564 0 0 0-.332-.534ZM42.467 45.17a1.765 1.765 0 0 0-1.128-.418c-.202 0-.402.037-.592.107a1.558 1.558 0 0 0-.908.842c-.1.231-.15.482-.145.735v3.638c-.006.256.043.51.145.745.09.196.22.37.384.509.152.14.33.25.524.32.19.07.39.106.592.107a1.715 1.715 0 0 0 1.128-.427c.158-.142.286-.315.375-.509.101-.234.15-.489.144-.745v-3.639a1.77 1.77 0 0 0-.144-.734 1.644 1.644 0 0 0-.375-.532Zm-.463 4.904a.653.653 0 0 1-.197.527.727.727 0 0 1-.934 0 .652.652 0 0 1-.197-.527v-3.639a.654.654 0 0 1 .197-.526.727.727 0 0 1 .934 0 .651.651 0 0 1 .197.526v3.64ZM50.205 51.7v-6.89h-.953l-1.253 3.647h-.017l-1.263-3.646h-.943v6.888h.984v-4.19h.018l.964 2.962h.49l.972-2.962h.017v4.19h.984ZM55.796 45.294c-.151-.17-.343-.3-.556-.377a2.185 2.185 0 0 0-.714-.107h-1.462v6.89h.982v-2.691h.506c.306.014.61-.051.885-.188a1.43 1.43 0 0 0 .539-.527c.113-.183.19-.387.225-.6a4.9 4.9 0 0 0 .053-.783c.01-.33-.023-.662-.096-.984a1.465 1.465 0 0 0-.362-.633Zm-.506 2.1a.868.868 0 0 1-.09.359.552.552 0 0 1-.254.241 1.006 1.006 0 0 1-.463.087h-.447v-2.342h.505a.942.942 0 0 1 .443.086.557.557 0 0 1 .23.254c.054.121.083.252.086.384v.458c0 .16.01.326 0 .473h-.01ZM60.446 44.81h-.805l-1.517 6.89h.981l.289-1.48h1.338l.288 1.48h.982l-1.556-6.89Zm-.906 4.471.483-2.497h.018l.48 2.497h-.98ZM66.788 48.96h-.018l-1.482-4.15h-.944v6.89h.982v-4.143h.02l1.5 4.142h.923v-6.888h-.981v4.15ZM72.786 44.81l-.79 2.74h-.02l-.79-2.74h-1.039l1.349 3.978v2.911h.981v-2.911l1.348-3.977h-1.04ZM33.838 53.645h.473v1.327h.322v-1.328h.47v-.272h-1.265v.273ZM37.815 53.372l-.62 1.6h.342l.131-.364h.638l.136.364h.35l-.636-1.6h-.341Zm-.05.967.217-.593.217.593h-.435ZM41.746 54.382h.37v.206a.613.613 0 0 1-.38.135.404.404 0 0 1-.339-.153.669.669 0 0 1-.119-.417c0-.356.154-.534.46-.534a.338.338 0 0 1 .362.255l.316-.062c-.068-.312-.293-.47-.677-.47a.804.804 0 0 0-.56.206.78.78 0 0 0-.23.615.873.873 0 0 0 .205.6.776.776 0 0 0 .607.235.96.96 0 0 0 .678-.255v-.63h-.693v.27ZM45.76 53.372h-.323v1.6h1.12V54.7h-.796v-1.328ZM49.156 53.372h-.324v1.6h.324v-1.6ZM52.475 54.44l-.656-1.068h-.313v1.6h.3v-1.045l.643 1.045h.322v-1.6h-.296v1.069ZM55.475 54.267h.797v-.272h-.797v-.35h.858v-.273H55.15v1.6h1.214V54.7h-.89v-.433ZM62.75 54.003h-.63v-.63h-.32v1.599h.32v-.7h.63v.7h.322v-1.6h-.322v.631ZM65.768 54.267h.8v-.272h-.8v-.35h.86v-.273h-1.181v1.6h1.212V54.7h-.89v-.433ZM69.861 54.268c.279-.044.42-.191.42-.445a.383.383 0 0 0-.157-.356.904.904 0 0 0-.468-.094h-.678v1.599h.322v-.669h.063a.432.432 0 0 1 .2.036c.047.029.086.069.114.117l.349.508h.384l-.194-.312a1.114 1.114 0 0 0-.355-.384Zm-.323-.222H69.3v-.401h.253a.84.84 0 0 1 .326.038.208.208 0 0 1 .046.255.208.208 0 0 1-.061.07.912.912 0 0 1-.326.038ZM72.948 54.267h.797v-.272h-.797v-.35h.86v-.273h-1.184v1.6h1.214V54.7h-.89v-.433Z"/>
</svg>
