<svg xmlns="http://www.w3.org/2000/svg" width="107" height="60" fill="none">
  <path fill="#AFB1B8" fill-rule="evenodd" d="m38.463 7 7.008 6.634-13.008-.008v32.188h34V33.507l7 6.627V7h-35Zm27.693 25.728-19.87-18.81h19.87v18.81Zm-6.17 8.377H37.843V19.459h1.565V39.64h20.578v1.465ZM43.072 50.1l-.818 1.685-.818-1.685h-.686l1.194 2.246v1.309h.62v-1.309l1.192-2.246h-.684Zm1.028 3.555.288-.828h1.377l.29.828h.645l-1.345-3.555H44.8l-1.343 3.555h.642Zm.976-2.8.516 1.474h-1.03l.514-1.475Zm3.257 1.389a.807.807 0 0 0-.134.451c0 .3.105.543.315.73.211.186.493.279.845.279.351 0 .654-.096.908-.286l.2.237h.689l-.523-.618c.205-.28.308-.639.308-1.077h-.516c0 .24-.05.457-.148.652l-.686-.81.241-.176c.171-.124.294-.247.369-.371a.785.785 0 0 0 .112-.41.732.732 0 0 0-.249-.564.895.895 0 0 0-.635-.23c-.286 0-.514.082-.683.244-.17.162-.254.381-.254.66 0 .114.027.231.08.354.056.122.153.27.291.444-.264.189-.44.352-.53.49Zm1.604.786a.906.906 0 0 1-.561.2.585.585 0 0 1-.425-.154.533.533 0 0 1-.159-.4c0-.19.098-.36.293-.508l.076-.054.776.916Zm-.637-1.575c-.168-.207-.251-.378-.251-.515 0-.119.034-.217.102-.295a.348.348 0 0 1 .276-.118.37.37 0 0 1 .266.1c.07.066.105.145.105.237a.44.44 0 0 1-.151.345l-.076.06-.271.186Zm5.786 1.931c.244-.213.384-.51.42-.888h-.615c-.033.254-.11.435-.232.544-.122.11-.304.164-.547.164-.265 0-.467-.101-.605-.303-.137-.202-.206-.495-.206-.88v-.314c.004-.38.077-.666.22-.862.145-.197.352-.295.62-.295.232 0 .406.057.525.17.12.113.196.297.225.552h.615c-.039-.389-.178-.69-.417-.903-.24-.213-.555-.32-.948-.32-.291 0-.548.07-.771.208a1.346 1.346 0 0 0-.51.59 2.082 2.082 0 0 0-.179.887v.332c.005.327.066.614.184.862.117.247.283.438.497.573.217.134.467.2.75.2.405 0 .73-.105.974-.317Zm3.63-.498c.121-.264.181-.57.181-.918v-.197a2.15 2.15 0 0 0-.185-.911 1.356 1.356 0 0 0-.52-.6c-.223-.14-.48-.21-.77-.21-.29 0-.546.07-.77.212-.224.14-.397.342-.52.608a2.174 2.174 0 0 0-.184.918v.2c.002.34.063.64.185.9.124.261.298.462.523.604.226.14.483.21.772.21.29 0 .548-.07.771-.21.225-.142.397-.344.518-.606Zm-.661-2.01c.15.21.224.513.224.907v.185c0 .4-.074.705-.222.913-.146.209-.356.313-.63.313a.738.738 0 0 1-.634-.32c-.152-.213-.227-.515-.227-.906v-.205c.003-.382.08-.678.23-.886a.73.73 0 0 1 .627-.315c.273 0 .484.105.632.315Z" clip-rule="evenodd"/>
</svg>
